<svg width="165" height="35" viewBox="0 0 165 35" fill="none" xmlns="http://www.w3.org/2000/svg">
<path d="M26.8334 8.89888H34.9933L29.3964 35H20.5566L17.3659 19.6218L14.1228 35H5.28299L0 8.89888H8.26448L10.1998 25.3755L13.5998 8.89888H21.3935L24.4273 25.2709L26.8334 8.89888Z" fill="#FFB400"/>
<path d="M46.2241 35H37.332V8.89888H46.2241V35ZM37.175 6.28354V0.00671387H46.381V6.28354H37.175Z" fill="#FFB400"/>
<path d="M59.3008 35H50.4087V8.89888H59.1439V13.868H59.3008V35ZM71.8022 35H62.91V16.588C62.91 16.2044 62.8054 15.9254 62.5962 15.7511C62.3869 15.5418 62.0557 15.4372 61.6023 15.4372H60.7131C60.2598 15.4372 59.9111 15.5593 59.667 15.8034C59.4229 16.0475 59.3008 16.4485 59.3008 17.0064V18.4187H58.987V13.7111C58.987 12.2465 59.388 11.0783 60.19 10.2065C61.027 9.33477 62.2649 8.89888 63.9038 8.89888H64.8454C67.3212 8.89888 69.0996 9.49169 70.1806 10.6773C71.2617 11.8629 71.8022 13.4321 71.8022 15.3849V35Z" fill="#FFB400"/>
<path d="M85.7354 7.43429V35H76.8432V6.49276C76.8432 4.53997 77.4186 2.97077 78.5694 1.78515C79.755 0.599524 81.7426 0.00671387 84.5323 0.00671387H89.8153V6.28354H87.0431C86.5897 6.28354 86.2585 6.38815 86.0492 6.59738C85.84 6.77173 85.7354 7.0507 85.7354 7.43429ZM89.8153 8.89888V15.4372H74.1756V8.89888H89.8153Z" fill="#FFB400"/>
<path d="M104.694 22.9171V16.2218C104.694 15.8383 104.59 15.5593 104.38 15.3849C104.171 15.1757 103.84 15.0711 103.386 15.0711H102.602V8.89888H106.002C108.792 8.89888 110.727 9.49169 111.808 10.6773C112.889 11.8629 113.429 13.4321 113.429 15.3849V22.9171H104.694ZM104.694 27.677V22.2371H113.429V28.5139C113.429 30.4667 112.889 32.0359 111.808 33.2216C110.727 34.4072 108.792 35 106.002 35H102.602V28.8278H103.386C103.84 28.8278 104.171 28.7406 104.38 28.5662C104.59 28.357 104.694 28.0606 104.694 27.677ZM100.667 16.2218V22.9171H91.9313V15.3849C91.9313 13.4321 92.4718 11.8629 93.5528 10.6773C94.6338 9.49169 96.5692 8.89888 99.3589 8.89888H102.759V15.0711H101.974C101.521 15.0711 101.19 15.1757 100.98 15.3849C100.771 15.5593 100.667 15.8383 100.667 16.2218ZM100.667 22.2371V27.677C100.667 28.0606 100.771 28.357 100.98 28.5662C101.19 28.7406 101.521 28.8278 101.974 28.8278H102.759V35H99.3589C96.5692 35 94.6338 34.4072 93.5528 33.2216C92.4718 32.0359 91.9313 30.4667 91.9313 28.5139V22.2371H100.667Z" fill="#FFB400"/>
<path d="M126.268 35H117.376V0.00671387H126.268V35Z" fill="#FFB400"/>
<path d="M139.345 35H130.452V8.89888H139.345V35ZM130.296 6.28354V0.00671387H139.502V6.28354H130.296Z" fill="#FFB400"/>
<path d="M156.03 22.9171V16.2218C156.03 15.8383 155.926 15.5593 155.717 15.3849C155.507 15.1757 155.176 15.0711 154.723 15.0711H153.938V8.89888H157.338C160.128 8.89888 162.063 9.49169 163.144 10.6773C164.225 11.8629 164.766 13.4321 164.766 15.3849V22.9171H156.03ZM156.03 27.677V22.2371H164.766V28.5139C164.766 30.4667 164.225 32.0359 163.144 33.2216C162.063 34.4072 160.128 35 157.338 35H153.938V28.8278H154.723C155.176 28.8278 155.507 28.7406 155.717 28.5662C155.926 28.357 156.03 28.0606 156.03 27.677ZM152.003 16.2218V22.9171H143.268V15.3849C143.268 13.4321 143.808 11.8629 144.889 10.6773C145.97 9.49169 147.905 8.89888 150.695 8.89888H154.095V15.0711H153.311C152.857 15.0711 152.526 15.1757 152.317 15.3849C152.107 15.5593 152.003 15.8383 152.003 16.2218ZM152.003 22.2371V27.677C152.003 28.0606 152.107 28.357 152.317 28.5662C152.526 28.7406 152.857 28.8278 153.311 28.8278H154.095V35H150.695C147.905 35 145.97 34.4072 144.889 33.2216C143.808 32.0359 143.268 30.4667 143.268 28.5139V22.2371H152.003Z" fill="#FFB400"/>
<path d="M37.3344 6.39635L37.1772 0.00394964L84.2764 0.00393542L84.2764 6.39212L37.3344 6.39635Z" fill="#FFB400"/>
</svg>
