<svg width="85" height="18" viewBox="0 0 85 18" fill="none" xmlns="http://www.w3.org/2000/svg">
<path d="M13.8001 4.57657H17.9967L15.1183 18.0001H10.572L8.93109 10.0912L7.26323 18.0001H2.71699L0 4.57657H4.25034L5.24567 13.0503L6.99423 4.57657H11.0025L12.5627 12.9965L13.8001 4.57657Z" fill="white"/>
<path d="M23.7726 18.0001H19.1994V4.57657H23.7726V18.0001ZM19.1187 3.23152V0.00341797H23.8533V3.23152H19.1187Z" fill="white"/>
<path d="M30.4978 18.0001H25.9247V4.57657H30.4171V7.13215H30.4978V18.0001ZM36.9271 18.0001H32.354V8.53099C32.354 8.33372 32.3002 8.19025 32.1926 8.10058C32.085 7.99298 31.9146 7.93917 31.6814 7.93917H31.2241C30.991 7.93917 30.8116 8.00194 30.6861 8.12748C30.5606 8.25302 30.4978 8.45926 30.4978 8.7462V9.47252H30.3364V7.05145C30.3364 6.29822 30.5426 5.69743 30.9551 5.24909C31.3855 4.80074 32.0222 4.57657 32.8651 4.57657H33.3493C34.6226 4.57657 35.5372 4.88144 36.0932 5.49119C36.6491 6.10095 36.9271 6.90797 36.9271 7.91227V18.0001Z" fill="white"/>
<path d="M44.0928 3.82334V18.0001H39.5197V3.33913C39.5197 2.33483 39.8156 1.5278 40.4074 0.918047C41.0172 0.308294 42.0394 0.00341797 43.4741 0.00341797H46.1911V3.23152H44.7654C44.5322 3.23152 44.3618 3.28532 44.2542 3.39293C44.1466 3.4826 44.0928 3.62607 44.0928 3.82334ZM46.1911 4.57657V7.93917H38.1477V4.57657H46.1911Z" fill="white"/>
<path d="M53.8431 11.786V8.34269C53.8431 8.14541 53.7893 8.00194 53.6817 7.91227C53.5741 7.80467 53.4037 7.75087 53.1706 7.75087H52.7671V4.57657H54.5157C55.9504 4.57657 56.9457 4.88144 57.5016 5.49119C58.0576 6.10095 58.3356 6.90797 58.3356 7.91227V11.786H53.8431ZM53.8431 14.234V11.4363H58.3356V14.6644C58.3356 15.6687 58.0576 16.4757 57.5016 17.0855C56.9457 17.6952 55.9504 18.0001 54.5157 18.0001H52.7671V14.8258H53.1706C53.4037 14.8258 53.5741 14.781 53.6817 14.6913C53.7893 14.5837 53.8431 14.4312 53.8431 14.234ZM51.7718 8.34269V11.786H47.2793V7.91227C47.2793 6.90797 47.5573 6.10095 48.1132 5.49119C48.6692 4.88144 49.6645 4.57657 51.0992 4.57657H52.8478V7.75087H52.4443C52.2111 7.75087 52.0408 7.80467 51.9332 7.91227C51.8256 8.00194 51.7718 8.14541 51.7718 8.34269ZM51.7718 11.4363V14.234C51.7718 14.4312 51.8256 14.5837 51.9332 14.6913C52.0408 14.781 52.2111 14.8258 52.4443 14.8258H52.8478V18.0001H51.0992C49.6645 18.0001 48.6692 17.6952 48.1132 17.0855C47.5573 16.4757 47.2793 15.6687 47.2793 14.6644V11.4363H51.7718Z" fill="white"/>
<path d="M64.9383 18.0001H60.3651V0.00341797H64.9383V18.0001Z" fill="white"/>
<path d="M71.6635 18.0001H67.0903V4.57657H71.6635V18.0001ZM67.0096 3.23152V0.00341797H71.7442V3.23152H67.0096Z" fill="white"/>
<path d="M80.2449 11.786V8.34269C80.2449 8.14541 80.191 8.00194 80.0835 7.91227C79.9758 7.80467 79.8055 7.75087 79.5723 7.75087H79.1688V4.57657H80.9174C82.3521 4.57657 83.3474 4.88144 83.9034 5.49119C84.4593 6.10095 84.7373 6.90797 84.7373 7.91227V11.786H80.2449ZM80.2449 14.234V11.4363H84.7373V14.6644C84.7373 15.6687 84.4593 16.4757 83.9034 17.0855C83.3474 17.6952 82.3521 18.0001 80.9174 18.0001H79.1688V14.8258H79.5723C79.8055 14.8258 79.9758 14.781 80.0835 14.6913C80.191 14.5837 80.2449 14.4312 80.2449 14.234ZM78.1735 8.34269V11.786H73.681V7.91227C73.681 6.90797 73.959 6.10095 74.515 5.49119C75.0709 4.88144 76.0663 4.57657 77.501 4.57657H79.2495V7.75087H78.846C78.6129 7.75087 78.4425 7.80467 78.3349 7.91227C78.2273 8.00194 78.1735 8.14541 78.1735 8.34269ZM78.1735 11.4363V14.234C78.1735 14.4312 78.2273 14.5837 78.3349 14.6913C78.4425 14.781 78.6129 14.8258 78.846 14.8258H79.2495V18.0001H77.501C76.0663 18.0001 75.0709 17.6952 74.515 17.0855C73.959 16.4757 73.681 15.6687 73.681 14.6644V11.4363H78.1735Z" fill="white"/>
<path d="M19.2007 3.28954L19.1198 0.00199938L43.3425 0.00199218L43.3425 3.28737L19.2007 3.28954Z" fill="white"/>
</svg>
