<svg width="85" height="18" viewBox="0 0 85 18" fill="none" xmlns="http://www.w3.org/2000/svg">
<path d="M13.8001 4.57608H17.9967L15.1183 17.9996H10.572L8.93109 10.0908L7.26323 17.9996H2.71699L0 4.57608H4.25034L5.24567 13.0498L6.99423 4.57608H11.0025L12.5627 12.996L13.8001 4.57608Z" fill="black"/>
<path d="M23.7726 17.9996H19.1994V4.57608H23.7726V17.9996ZM19.1187 3.23103V0.00292969H23.8533V3.23103H19.1187Z" fill="black"/>
<path d="M30.4978 17.9996H25.9247V4.57608H30.4171V7.13166H30.4978V17.9996ZM36.9271 17.9996H32.354V8.5305C32.354 8.33323 32.3002 8.18976 32.1926 8.10009C32.085 7.99249 31.9146 7.93869 31.6814 7.93869H31.2241C30.991 7.93869 30.8116 8.00145 30.6861 8.12699C30.5606 8.25253 30.4978 8.45877 30.4978 8.74571V9.47204H30.3364V7.05096C30.3364 6.29773 30.5426 5.69695 30.9551 5.2486C31.3855 4.80025 32.0222 4.57608 32.8651 4.57608H33.3493C34.6226 4.57608 35.5372 4.88095 36.0932 5.49071C36.6491 6.10046 36.9271 6.90749 36.9271 7.91178V17.9996Z" fill="black"/>
<path d="M44.0928 3.82285V17.9996H39.5197V3.33864C39.5197 2.33434 39.8156 1.52731 40.4074 0.917559C41.0172 0.307806 42.0394 0.00292969 43.4741 0.00292969H46.1911V3.23103H44.7654C44.5322 3.23103 44.3618 3.28484 44.2542 3.39244C44.1466 3.48211 44.0928 3.62558 44.0928 3.82285ZM46.1911 4.57608V7.93869H38.1477V4.57608H46.1911Z" fill="black"/>
<path d="M53.8431 11.7855V8.3422C53.8431 8.14493 53.7893 8.00145 53.6817 7.91178C53.5741 7.80418 53.4037 7.75038 53.1706 7.75038H52.7671V4.57608H54.5157C55.9504 4.57608 56.9457 4.88095 57.5016 5.49071C58.0576 6.10046 58.3356 6.90749 58.3356 7.91178V11.7855H53.8431ZM53.8431 14.2335V11.4358H58.3356V14.6639C58.3356 15.6682 58.0576 16.4752 57.5016 17.085C56.9457 17.6947 55.9504 17.9996 54.5157 17.9996H52.7671V14.8253H53.1706C53.4037 14.8253 53.5741 14.7805 53.6817 14.6908C53.7893 14.5832 53.8431 14.4308 53.8431 14.2335ZM51.7718 8.3422V11.7855H47.2793V7.91178C47.2793 6.90749 47.5573 6.10046 48.1132 5.49071C48.6692 4.88095 49.6645 4.57608 51.0992 4.57608H52.8478V7.75038H52.4443C52.2111 7.75038 52.0408 7.80418 51.9332 7.91178C51.8256 8.00145 51.7718 8.14493 51.7718 8.3422ZM51.7718 11.4358V14.2335C51.7718 14.4308 51.8256 14.5832 51.9332 14.6908C52.0408 14.7805 52.2111 14.8253 52.4443 14.8253H52.8478V17.9996H51.0992C49.6645 17.9996 48.6692 17.6947 48.1132 17.085C47.5573 16.4752 47.2793 15.6682 47.2793 14.6639V11.4358H51.7718Z" fill="black"/>
<path d="M64.9383 17.9996H60.3651V0.00292969H64.9383V17.9996Z" fill="black"/>
<path d="M71.6635 17.9996H67.0903V4.57608H71.6635V17.9996ZM67.0096 3.23103V0.00292969H71.7442V3.23103H67.0096Z" fill="black"/>
<path d="M80.2449 11.7855V8.3422C80.2449 8.14493 80.191 8.00145 80.0835 7.91178C79.9758 7.80418 79.8055 7.75038 79.5723 7.75038H79.1688V4.57608H80.9174C82.3521 4.57608 83.3474 4.88095 83.9034 5.49071C84.4593 6.10046 84.7373 6.90749 84.7373 7.91178V11.7855H80.2449ZM80.2449 14.2335V11.4358H84.7373V14.6639C84.7373 15.6682 84.4593 16.4752 83.9034 17.085C83.3474 17.6947 82.3521 17.9996 80.9174 17.9996H79.1688V14.8253H79.5723C79.8055 14.8253 79.9758 14.7805 80.0835 14.6908C80.191 14.5832 80.2449 14.4308 80.2449 14.2335ZM78.1735 8.3422V11.7855H73.681V7.91178C73.681 6.90749 73.959 6.10046 74.515 5.49071C75.0709 4.88095 76.0663 4.57608 77.501 4.57608H79.2495V7.75038H78.846C78.6129 7.75038 78.4425 7.80418 78.3349 7.91178C78.2273 8.00145 78.1735 8.14493 78.1735 8.3422ZM78.1735 11.4358V14.2335C78.1735 14.4308 78.2273 14.5832 78.3349 14.6908C78.4425 14.7805 78.6129 14.8253 78.846 14.8253H79.2495V17.9996H77.501C76.0663 17.9996 75.0709 17.6947 74.515 17.085C73.959 16.4752 73.681 15.6682 73.681 14.6639V11.4358H78.1735Z" fill="black"/>
<path d="M19.1997 3.29003L19.1188 0.00248766L43.3415 0.00248046L43.3415 3.28786L19.1997 3.29003Z" fill="black"/>
</svg>
